<svg xmlns="http://www.w3.org/2000/svg" viewBox="0 0 1200 800" role="img" aria-labelledby="title desc">
  <title id="title">Sparky introduction</title>
  <desc id="desc">Sparky leans out of a screen, looks across the room, and introduces itself.</desc>
  <defs>
    <linearGradient id="bg" x1="0%" y1="0%" x2="100%" y2="100%">
      <stop offset="0%" stop-color="#081114"/>
      <stop offset="100%" stop-color="#163c35"/>
    </linearGradient>
    <linearGradient id="frame" x1="0%" y1="0%" x2="100%" y2="100%">
      <stop offset="0%" stop-color="#173f36"/>
      <stop offset="100%" stop-color="#0f2b26"/>
    </linearGradient>
    <linearGradient id="metal" x1="0%" y1="0%" x2="100%" y2="100%">
      <stop offset="0%" stop-color="#d9fff3"/>
      <stop offset="100%" stop-color="#98e6cf"/>
    </linearGradient>
    <radialGradient id="glow" cx="50%" cy="32%" r="56%">
      <stop offset="0%" stop-color="#7ef5cf" stop-opacity=".34"/>
      <stop offset="100%" stop-color="#7ef5cf" stop-opacity="0"/>
    </radialGradient>
  </defs>
  <rect width="1200" height="800" fill="url(#bg)"/>
  <rect width="1200" height="800" fill="url(#glow)"/>
  <g opacity=".18" fill="#d9fff3">
    <circle cx="120" cy="722" r="74"/>
    <circle cx="220" cy="770" r="46"/>
    <circle cx="984" cy="766" r="50"/>
    <circle cx="1084" cy="720" r="78"/>
  </g>
  <g>
    <rect x="254" y="92" width="692" height="438" rx="30" fill="url(#frame)" stroke="#7ef5cf" stroke-opacity=".36" stroke-width="4"/>
    <rect x="290" y="128" width="620" height="366" rx="22" fill="#0b1815"/>
    <path d="M290 204H910M290 278H910M290 352H910M290 426H910" stroke="#7ef5cf" stroke-opacity=".08" stroke-width="2"/>
    <ellipse cx="600" cy="728" rx="222" ry="24" fill="#000" opacity=".24"/>
  </g>
  <g transform="translate(600 410)">
    <animateTransform attributeName="transform" type="translate" values="600 410;600 400;600 410" dur="4.2s" repeatCount="indefinite"/>
    <g>
      <animateTransform attributeName="transform" type="rotate" values="-8 0 -176;8 0 -176;-8 0 -176" dur="4.6s" repeatCount="indefinite"/>
      <path d="M0 -168v42" stroke="#98e6cf" stroke-width="14" stroke-linecap="round"/>
      <circle cx="0" cy="-186" r="18" fill="#10a37f"/>
    </g>
    <path d="M-80 150v56" stroke="#98e6cf" stroke-width="20" stroke-linecap="round"/>
    <path d="M80 150v56" stroke="#98e6cf" stroke-width="20" stroke-linecap="round"/>
    <path d="M-44 210l-14 44" stroke="#98e6cf" stroke-width="18" stroke-linecap="round"/>
    <path d="M44 210l14 44" stroke="#98e6cf" stroke-width="18" stroke-linecap="round"/>
    <path d="M-88 254h48" stroke="#10a37f" stroke-width="14" stroke-linecap="round"/>
    <path d="M40 254h48" stroke="#10a37f" stroke-width="14" stroke-linecap="round"/>
    <g transform="translate(-166 10)">
      <animateTransform attributeName="transform" type="rotate" values="-18 166 0;8 166 0;-18 166 0" dur="3.6s" repeatCount="indefinite"/>
      <path d="M0 0h66" stroke="#98e6cf" stroke-width="18" stroke-linecap="round"/>
      <circle cx="-8" cy="0" r="16" fill="#10a37f"/>
    </g>
    <g transform="translate(166 10)">
      <animateTransform attributeName="transform" type="rotate" values="18 -166 0;-8 -166 0;18 -166 0" dur="3.6s" repeatCount="indefinite"/>
      <path d="M0 0h-66" stroke="#98e6cf" stroke-width="18" stroke-linecap="round"/>
      <circle cx="8" cy="0" r="16" fill="#10a37f"/>
    </g>
    <rect x="-132" y="-104" width="264" height="190" rx="56" fill="url(#metal)" stroke="#10a37f" stroke-width="10"/>
    <circle cx="0" cy="0" r="154" fill="#0b1815" opacity=".28"/>
    <rect x="-88" y="-64" width="176" height="88" rx="34" fill="#163832"/>
    <circle cx="-34" cy="-18" r="18" fill="#7ef5cf">
      <animate attributeName="cx" values="-34;-22;-34;-46;-34" dur="4.6s" repeatCount="indefinite"/>
    </circle>
    <circle cx="34" cy="-18" r="18" fill="#7ef5cf">
      <animate attributeName="cx" values="34;46;34;22;34" dur="4.6s" repeatCount="indefinite"/>
    </circle>
    <path d="M-50 48c14 16 32 24 50 24s36-8 50-24" fill="none" stroke="#10a37f" stroke-width="12" stroke-linecap="round"/>
  </g>
  <g opacity=".86">
    <rect x="214" y="154" width="132" height="8" rx="4" fill="#7ef5cf">
      <animate attributeName="y" values="154;486;154" dur="4.1s" repeatCount="indefinite"/>
      <animate attributeName="opacity" values=".16;.82;.16" dur="4.1s" repeatCount="indefinite"/>
    </rect>
    <rect x="854" y="154" width="132" height="8" rx="4" fill="#7ef5cf">
      <animate attributeName="y" values="486;154;486" dur="4.1s" repeatCount="indefinite"/>
      <animate attributeName="opacity" values=".16;.82;.16" dur="4.1s" repeatCount="indefinite"/>
    </rect>
  </g>
  <text x="600" y="74" text-anchor="middle" font-family="Segoe UI, Arial, sans-serif" font-size="32" font-weight="700" fill="#e4fffa" letter-spacing="2">MEET SPARKY</text>
</svg>