<svg viewBox="0 0 50 50" xmlns="http://www.w3.org/2000/svg" xmlns:xlink="http://www.w3.org/1999/xlink" stroke-width="1" overflow="hidden"><style>
.MsftOfcThm_Accent3_Stroke_v2 {
 stroke:#49B7C3; 
}
</style>
<g transform="scale(2.08333 2.08333)"><g><path d="M12.75 21 14.25 21 14.25 23.25 17.25 21 21.75 21C22.5784 21 23.25 20.3284 23.25 19.5L23.25 15C23.25 14.1716 22.5784 13.5 21.75 13.5L12.75 13.5C11.9216 13.5 11.25 14.1716 11.25 15L11.25 19.5C11.25 20.3284 11.9216 21 12.75 21Z" class="MsftOfcThm_Accent3_Stroke_v2" stroke="#49B7C3" stroke-width="1.36054" stroke-linecap="round" stroke-linejoin="round" stroke-miterlimit="4" stroke-opacity="1" fill="none"/><g><circle cx="4.97" cy="16.87" r="2.62" class="MsftOfcThm_Accent3_Stroke_v2" stroke="#49B7C3" stroke-width="1.36054" stroke-linecap="round" stroke-linejoin="round" stroke-miterlimit="4" stroke-opacity="1" fill="none"/><path d="M9.2 23.25C8.37716 20.9166 5.81851 19.692 3.48511 20.5149 2.20652 20.9658 1.20088 21.9714 0.75 23.25" class="MsftOfcThm_Accent3_Stroke_v2" stroke="#49B7C3" stroke-width="1.36054" stroke-linecap="round" stroke-linejoin="round" stroke-miterlimit="4" stroke-opacity="1" fill="none"/></g><g><circle cx="19.03" cy="4.13" r="2.62" class="MsftOfcThm_Accent3_Stroke_v2" stroke="#49B7C3" stroke-width="1.36054" stroke-linecap="round" stroke-linejoin="round" stroke-miterlimit="4" stroke-opacity="1" fill="none"/><path d="M23.25 10.5C22.4272 8.1666 19.8685 6.94205 17.5351 7.76489 16.2565 8.21577 15.2509 9.22141 14.8 10.5" class="MsftOfcThm_Accent3_Stroke_v2" stroke="#49B7C3" stroke-width="1.36054" stroke-linecap="round" stroke-linejoin="round" stroke-miterlimit="4" stroke-opacity="1" fill="none"/></g><line x1="14.75" y1="17.25" x2="18.75" y2="17.25" class="MsftOfcThm_Accent3_Stroke_v2" stroke="#49B7C3" stroke-width="1.36054" stroke-linecap="round" stroke-linejoin="round" stroke-miterlimit="4" stroke-opacity="1" fill="none"/><path d="M11.25 8.25 9.75 8.25 9.75 10.5 6.75 8.25 2.25 8.25C1.42157 8.25 0.75 7.57843 0.75 6.75L0.75 2.25C0.75 1.42157 1.42157 0.75 2.25 0.75L11.25 0.75C12.0784 0.75 12.75 1.42157 12.75 2.25L12.75 6.75C12.75 7.57843 12.0784 8.25 11.25 8.25Z" class="MsftOfcThm_Accent3_Stroke_v2" stroke="#49B7C3" stroke-width="1.36054" stroke-linecap="round" stroke-linejoin="round" stroke-miterlimit="4" stroke-opacity="1" fill="none"/><line x1="8.25" y1="4.25" x2="4.25" y2="4.25" class="MsftOfcThm_Accent3_Stroke_v2" stroke="#49B7C3" stroke-width="1.36054" stroke-linecap="round" stroke-linejoin="round" stroke-miterlimit="4" stroke-opacity="1" fill="none"/></g></g></svg>