<svg viewBox="0 0 50 50" xmlns="http://www.w3.org/2000/svg" xmlns:xlink="http://www.w3.org/1999/xlink" stroke-width="1" overflow="hidden"><style>
.MsftOfcThm_Accent3_Stroke_v2 {
 stroke:#49B7C3; 
}
</style>
<g transform="scale(2.08333 2.08333)"><g><path d="M15 17.25 15 21.75C15 22.5784 14.3284 23.25 13.5 23.25L10.5 23.25C9.67157 23.25 9 22.5784 9 21.75L9 17.25" class="MsftOfcThm_Accent3_Stroke_v2" stroke="#49B7C3" stroke-width="1.36054" stroke-linecap="round" stroke-linejoin="round" stroke-miterlimit="4" stroke-opacity="1" fill="none"/><line x1="9" y1="20.25" x2="15" y2="20.25" class="MsftOfcThm_Accent3_Stroke_v2" stroke="#49B7C3" stroke-width="1.36054" stroke-linecap="round" stroke-linejoin="round" stroke-miterlimit="4" stroke-opacity="1" fill="none"/><line x1="12" y1="0.75" x2="12" y2="2.25" class="MsftOfcThm_Accent3_Stroke_v2" stroke="#49B7C3" stroke-width="1.36054" stroke-linecap="round" stroke-linejoin="round" stroke-miterlimit="4" stroke-opacity="1" fill="none"/><line x1="1.5" y1="11.25" x2="3" y2="11.25" class="MsftOfcThm_Accent3_Stroke_v2" stroke="#49B7C3" stroke-width="1.36054" stroke-linecap="round" stroke-linejoin="round" stroke-miterlimit="4" stroke-opacity="1" fill="none"/><line x1="3.75" y1="3.75" x2="4.85" y2="4.81" class="MsftOfcThm_Accent3_Stroke_v2" stroke="#49B7C3" stroke-width="1.36054" stroke-linecap="round" stroke-linejoin="round" stroke-miterlimit="4" stroke-opacity="1" fill="none"/><line x1="22.5" y1="11.25" x2="21" y2="11.25" class="MsftOfcThm_Accent3_Stroke_v2" stroke="#49B7C3" stroke-width="1.36054" stroke-linecap="round" stroke-linejoin="round" stroke-miterlimit="4" stroke-opacity="1" fill="none"/><line x1="20.25" y1="3.75" x2="19.15" y2="4.81" class="MsftOfcThm_Accent3_Stroke_v2" stroke="#49B7C3" stroke-width="1.36054" stroke-linecap="round" stroke-linejoin="round" stroke-miterlimit="4" stroke-opacity="1" fill="none"/><path d="M9 10.75C9.82843 10.75 10.5 11.4216 10.5 12.25L10.5 17.25" class="MsftOfcThm_Accent3_Stroke_v2" stroke="#49B7C3" stroke-width="1.36054" stroke-linecap="round" stroke-linejoin="round" stroke-miterlimit="4" stroke-opacity="1" fill="none"/><path d="M13.5 17.25 13.5 12.25C13.5 11.4216 14.1716 10.75 15 10.75" class="MsftOfcThm_Accent3_Stroke_v2" stroke="#49B7C3" stroke-width="1.36054" stroke-linecap="round" stroke-linejoin="round" stroke-miterlimit="4" stroke-opacity="1" fill="none"/><path d="M8.92 17.25 15.08 17.25C17.3559 16.1227 18.783 13.7895 18.75 11.25 18.6859 7.54895 15.701 4.5641 12 4.5 8.29895 4.5641 5.3141 7.54895 5.25 11.25 5.217 13.7895 6.64413 16.1227 8.92 17.25Z" class="MsftOfcThm_Accent3_Stroke_v2" stroke="#49B7C3" stroke-width="1.36054" stroke-linecap="round" stroke-linejoin="round" stroke-miterlimit="4" stroke-opacity="1" fill="none"/></g></g></svg>