<svg viewBox="0 0 50 50" xmlns="http://www.w3.org/2000/svg" xmlns:xlink="http://www.w3.org/1999/xlink" stroke-width="1" overflow="hidden"><style>
.MsftOfcThm_Accent3_Stroke_v2 {
 stroke:#49B7C3; 
}
</style>
<g transform="scale(2.08333 2.08333)"><defs></defs><line x1="0.904" y1="0.75" x2="0.904" y2="23.25" class="MsftOfcThm_Accent3_Stroke_v2" stroke="#49B7C3" stroke-width="1.36054" stroke-linecap="round" stroke-linejoin="round" stroke-miterlimit="4" stroke-opacity="1" fill="none"/><path d="M14.4 5.25C13.5716 5.25 12.9 5.92157 12.9 6.75L12.9 11.25C12.9 12.0784 13.5716 12.75 14.4 12.75 15.2284 12.75 15.9 12.0784 15.9 11.25L15.9 6.75C15.9 5.92157 15.2284 5.25 14.4 5.25Z" class="MsftOfcThm_Accent3_Stroke_v2" stroke="#49B7C3" stroke-width="1.36054" stroke-linecap="round" stroke-linejoin="round" stroke-miterlimit="4" stroke-opacity="1" fill="none"/><path d="M9.154 9.75 9.9 9.75 9.9 11.25C9.9 12.0784 9.22843 12.75 8.4 12.75 7.57157 12.75 6.9 12.0784 6.9 11.25L6.9 6.75C6.9 5.92157 7.57157 5.25 8.4 5.25L9.9 5.25" class="MsftOfcThm_Accent3_Stroke_v2" stroke="#49B7C3" stroke-width="1.36054" stroke-linecap="round" stroke-linejoin="round" stroke-miterlimit="4" stroke-opacity="1" fill="none"/><path d="M0.9 2.25 22.25 2.25C22.6637 2.25047 22.9986 2.5862 22.9981 2.99986 22.998 3.10319 22.9765 3.20538 22.935 3.3L20.539 8.7C20.453 8.89389 20.453 9.11511 20.539 9.309L22.939 14.7C23.1074 15.0784 22.9372 15.5217 22.5588 15.6902 22.4629 15.7329 22.359 15.755 22.254 15.755L0.9 15.755" class="MsftOfcThm_Accent3_Stroke_v2" stroke="#49B7C3" stroke-width="1.36054" stroke-linecap="round" stroke-linejoin="round" stroke-miterlimit="4" stroke-opacity="1" fill="none"/></g></svg>